<mxfile host="Electron" agent="Mozilla/5.0 (Windows NT 10.0; Win64; x64) AppleWebKit/537.36 (KHTML, like Gecko) draw.io/24.7.17 Chrome/128.0.6613.36 Electron/32.0.1 Safari/537.36" version="24.7.17">
  <diagram name="Page-1" id="rxwtWj-Q2O3zGkdB0jLB">
    <mxGraphModel dx="993" dy="699" grid="1" gridSize="10" guides="1" tooltips="1" connect="1" arrows="1" fold="1" page="1" pageScale="1" pageWidth="827" pageHeight="1169" math="0" shadow="0">
      <root>
        <mxCell id="0" />
        <mxCell id="1" parent="0" />
        <mxCell id="VTYTF7z3ZeiXhu9waDC9-24" value="" style="group" parent="1" vertex="1" connectable="0">
          <mxGeometry x="93" y="265" width="640" height="640" as="geometry" />
        </mxCell>
        <mxCell id="VTYTF7z3ZeiXhu9waDC9-20" value="&lt;div&gt;&lt;br&gt;&lt;/div&gt;&lt;div&gt;&lt;br&gt;&lt;/div&gt;" style="ellipse;whiteSpace=wrap;html=1;aspect=fixed;" parent="VTYTF7z3ZeiXhu9waDC9-24" vertex="1">
          <mxGeometry width="640" height="640" as="geometry" />
        </mxCell>
        <mxCell id="VTYTF7z3ZeiXhu9waDC9-21" value="" style="ellipse;whiteSpace=wrap;html=1;aspect=fixed;" parent="VTYTF7z3ZeiXhu9waDC9-24" vertex="1">
          <mxGeometry x="105" y="210" width="430" height="430" as="geometry" />
        </mxCell>
        <mxCell id="VTYTF7z3ZeiXhu9waDC9-22" value="" style="ellipse;whiteSpace=wrap;html=1;aspect=fixed;" parent="VTYTF7z3ZeiXhu9waDC9-24" vertex="1">
          <mxGeometry x="180" y="350" width="280" height="280" as="geometry" />
        </mxCell>
        <mxCell id="VTYTF7z3ZeiXhu9waDC9-23" value="" style="ellipse;whiteSpace=wrap;html=1;aspect=fixed;" parent="VTYTF7z3ZeiXhu9waDC9-24" vertex="1">
          <mxGeometry x="246" y="480" width="150" height="150" as="geometry" />
        </mxCell>
        <mxCell id="VTYTF7z3ZeiXhu9waDC9-25" value="Wider Environment" style="text;html=1;align=center;verticalAlign=middle;whiteSpace=wrap;rounded=0;" parent="VTYTF7z3ZeiXhu9waDC9-24" vertex="1">
          <mxGeometry x="290" y="10" width="60" height="30" as="geometry" />
        </mxCell>
        <mxCell id="VTYTF7z3ZeiXhu9waDC9-26" value="Containing Environment" style="text;html=1;align=center;verticalAlign=middle;whiteSpace=wrap;rounded=0;" parent="VTYTF7z3ZeiXhu9waDC9-24" vertex="1">
          <mxGeometry x="290" y="220" width="60" height="30" as="geometry" />
        </mxCell>
        <mxCell id="VTYTF7z3ZeiXhu9waDC9-27" value="Business System" style="text;html=1;align=center;verticalAlign=middle;whiteSpace=wrap;rounded=0;" parent="VTYTF7z3ZeiXhu9waDC9-24" vertex="1">
          <mxGeometry x="290" y="360" width="60" height="30" as="geometry" />
        </mxCell>
        <mxCell id="VTYTF7z3ZeiXhu9waDC9-28" value="Application" style="text;html=1;align=center;verticalAlign=middle;whiteSpace=wrap;rounded=0;" parent="VTYTF7z3ZeiXhu9waDC9-24" vertex="1">
          <mxGeometry x="291" y="490" width="60" height="30" as="geometry" />
        </mxCell>
        <mxCell id="JVi2U7ytH5L8ACPaXpNS-1" value="Users" style="shape=umlActor;verticalLabelPosition=bottom;verticalAlign=top;html=1;outlineConnect=0;" vertex="1" parent="VTYTF7z3ZeiXhu9waDC9-24">
          <mxGeometry x="246" y="395" width="30" height="60" as="geometry" />
        </mxCell>
        <mxCell id="JVi2U7ytH5L8ACPaXpNS-2" value="ML Engineers&lt;div&gt;&lt;br&gt;&lt;/div&gt;" style="shape=umlActor;verticalLabelPosition=bottom;verticalAlign=top;html=1;outlineConnect=0;" vertex="1" parent="VTYTF7z3ZeiXhu9waDC9-24">
          <mxGeometry x="387" y="410" width="30" height="60" as="geometry" />
        </mxCell>
        <mxCell id="JVi2U7ytH5L8ACPaXpNS-5" value="Media" style="shape=umlActor;verticalLabelPosition=bottom;verticalAlign=top;html=1;outlineConnect=0;" vertex="1" parent="VTYTF7z3ZeiXhu9waDC9-24">
          <mxGeometry x="150" y="115" width="30" height="60" as="geometry" />
        </mxCell>
        <mxCell id="JVi2U7ytH5L8ACPaXpNS-9" value="APIs" style="shape=umlActor;verticalLabelPosition=bottom;verticalAlign=top;html=1;outlineConnect=0;" vertex="1" parent="VTYTF7z3ZeiXhu9waDC9-24">
          <mxGeometry x="587" y="300" width="30" height="60" as="geometry" />
        </mxCell>
        <mxCell id="JVi2U7ytH5L8ACPaXpNS-10" value="Developers" style="shape=umlActor;verticalLabelPosition=bottom;verticalAlign=top;html=1;outlineConnect=0;" vertex="1" parent="VTYTF7z3ZeiXhu9waDC9-24">
          <mxGeometry x="305" y="55" width="30" height="60" as="geometry" />
        </mxCell>
        <mxCell id="JVi2U7ytH5L8ACPaXpNS-11" value="Host" style="shape=umlActor;verticalLabelPosition=bottom;verticalAlign=top;html=1;outlineConnect=0;" vertex="1" parent="VTYTF7z3ZeiXhu9waDC9-24">
          <mxGeometry x="477" y="350" width="30" height="60" as="geometry" />
        </mxCell>
        <mxCell id="JVi2U7ytH5L8ACPaXpNS-13" value="" style="endArrow=classic;html=1;rounded=0;" edge="1" parent="VTYTF7z3ZeiXhu9waDC9-24" source="JVi2U7ytH5L8ACPaXpNS-9" target="JVi2U7ytH5L8ACPaXpNS-11">
          <mxGeometry width="50" height="50" relative="1" as="geometry">
            <mxPoint x="367" y="375" as="sourcePoint" />
            <mxPoint x="417" y="325" as="targetPoint" />
          </mxGeometry>
        </mxCell>
        <mxCell id="JVi2U7ytH5L8ACPaXpNS-14" value="" style="endArrow=classic;html=1;rounded=0;exitX=0.5;exitY=0.5;exitDx=0;exitDy=0;exitPerimeter=0;" edge="1" parent="VTYTF7z3ZeiXhu9waDC9-24" source="JVi2U7ytH5L8ACPaXpNS-10" target="JVi2U7ytH5L8ACPaXpNS-9">
          <mxGeometry width="50" height="50" relative="1" as="geometry">
            <mxPoint x="367" y="375" as="sourcePoint" />
            <mxPoint x="417" y="325" as="targetPoint" />
          </mxGeometry>
        </mxCell>
        <mxCell id="JVi2U7ytH5L8ACPaXpNS-15" value="" style="endArrow=classic;html=1;rounded=0;" edge="1" parent="VTYTF7z3ZeiXhu9waDC9-24" source="JVi2U7ytH5L8ACPaXpNS-11" target="JVi2U7ytH5L8ACPaXpNS-2">
          <mxGeometry width="50" height="50" relative="1" as="geometry">
            <mxPoint x="367" y="375" as="sourcePoint" />
            <mxPoint x="417" y="325" as="targetPoint" />
          </mxGeometry>
        </mxCell>
        <mxCell id="JVi2U7ytH5L8ACPaXpNS-18" value="" style="endArrow=classic;html=1;rounded=0;exitX=0;exitY=0.3333333333333333;exitDx=0;exitDy=0;exitPerimeter=0;" edge="1" parent="VTYTF7z3ZeiXhu9waDC9-24" source="JVi2U7ytH5L8ACPaXpNS-2" target="VTYTF7z3ZeiXhu9waDC9-23">
          <mxGeometry width="50" height="50" relative="1" as="geometry">
            <mxPoint x="367" y="375" as="sourcePoint" />
            <mxPoint x="417" y="325" as="targetPoint" />
          </mxGeometry>
        </mxCell>
      </root>
    </mxGraphModel>
  </diagram>
</mxfile>
